<svg xmlns="http://www.w3.org/2000/svg" width="800" height="600" viewBox="0 0 800 600" role="img" aria-label="Producto Sport Family">
  <defs>
    <linearGradient id="bg" x1="0" x2="1" y1="0" y2="1">
      <stop offset="0%" stop-color="#0f172a" />
      <stop offset="100%" stop-color="#111111" />
    </linearGradient>
    <linearGradient id="accent" x1="0" x2="1" y1="0" y2="1">
      <stop offset="0%" stop-color="#dfff00" />
      <stop offset="100%" stop-color="#ff6b6b" />
    </linearGradient>
  </defs>
  <rect width="800" height="600" rx="48" fill="url(#bg)" />
  <circle cx="640" cy="120" r="96" fill="rgba(223,255,0,0.12)" />
  <circle cx="160" cy="500" r="128" fill="rgba(255,107,107,0.10)" />
  <path d="M174 356c42 0 92-24 140-70 34-32 72-52 118-60 16-3 28 8 34 24l27 70c9 23 27 38 52 44l70 16c24 5 35 34 20 53-14 18-31 29-52 35-78 21-156 32-234 32-82 0-159-15-229-44-31-13-46-47-32-75 11-22 35-35 66-35z" fill="url(#accent)" opacity="0.95"/>
  <path d="M230 320c86-22 149-62 198-120 8-10 25-6 28 7l24 78c3 9-1 18-10 22-37 18-78 29-123 34-45 4-87 3-117-2-8-2-12-10-8-19 2-4 4-6 8-8z" fill="#f8fafc" opacity="0.9"/>
  <rect x="84" y="80" width="204" height="60" rx="30" fill="rgba(255,255,255,0.10)"/>
  <text x="186" y="119" font-family="Montserrat, Arial, sans-serif" font-size="26" font-weight="800" text-anchor="middle" fill="#ffffff">Sport Family</text>
</svg>
